<svg xmlns="http://www.w3.org/2000/svg" version="1.1" xmlns:xlink="http://www.w3.org/1999/xlink" xmlns:svgjs="http://svgjs.dev/svgjs" viewBox="0 0 12.159590323351946 12.52759871808437"><g transform="matrix(1,0,0,1,1.0284957231994092,10.02760299488496)"><g><path d=" M 0.6195 1.0574999999999999 L 0.40950000000000003 0.6674999999999999 L 0.378 0.6674999999999999 L 0.378 1.0574999999999999 L 0.084 1.0574999999999999 L 0.084 -2.220446049250313e-16 L 0.5475 -2.220446049250313e-16 Q 0.675 -2.220446049250313e-16 0.7635000000000001 0.0442499999999999 Q 0.852 0.08849999999999991 0.897 0.16574999999999984 Q 0.9420000000000001 0.24299999999999988 0.9420000000000001 0.33899999999999986 Q 0.9420000000000001 0.44699999999999984 0.88275 0.5287499999999998 Q 0.8235 0.6104999999999998 0.7095 0.6449999999999998 L 0.9480000000000001 1.0574999999999999 L 0.6195 1.0574999999999999 M 0.378 0.4664999999999999 L 0.5235 0.4664999999999999 Q 0.5835 0.4664999999999999 0.6135 0.43799999999999983 Q 0.6435 0.40949999999999986 0.6435 0.3554999999999998 Q 0.6435 0.3044999999999999 0.61275 0.2752499999999999 Q 0.582 0.24599999999999989 0.5235 0.24599999999999989 L 0.378 0.24599999999999989 L 0.378 0.4664999999999999 M 1.87201611328125 0.696 L 1.31551611328125 0.696 Q 1.32001611328125 0.7649999999999999 1.35376611328125 0.7987499999999998 Q 1.38751611328125 0.8324999999999999 1.4400161132812501 0.8324999999999999 Q 1.51351611328125 0.8324999999999999 1.54501611328125 0.7665 L 1.85851611328125 0.7665 Q 1.8390161132812501 0.8534999999999999 1.78276611328125 0.9217499999999998 Q 1.7265161132812499 0.9899999999999999 1.64101611328125 1.029 Q 1.55551611328125 1.0679999999999998 1.4520161132812501 1.0679999999999998 Q 1.32751611328125 1.0679999999999998 1.23076611328125 1.0154999999999998 Q 1.13401611328125 0.9629999999999999 1.07926611328125 0.8654999999999999 Q 1.02451611328125 0.7679999999999999 1.02451611328125 0.6359999999999999 Q 1.02451611328125 0.5039999999999999 1.07851611328125 0.4072499999999999 Q 1.13251611328125 0.3104999999999999 1.22926611328125 0.2579999999999999 Q 1.32601611328125 0.2054999999999999 1.4520161132812501 0.2054999999999999 Q 1.57651611328125 0.2054999999999999 1.67251611328125 0.25649999999999984 Q 1.7685161132812501 0.3074999999999999 1.82251611328125 0.40274999999999983 Q 1.87651611328125 0.4979999999999999 1.87651611328125 0.6269999999999999 Q 1.87651611328125 0.6614999999999999 1.87201611328125 0.696 M 1.57651611328125 0.5534999999999999 Q 1.57651611328125 0.49949999999999983 1.54051611328125 0.4687499999999999 Q 1.50451611328125 0.43799999999999983 1.45051611328125 0.43799999999999983 Q 1.39651611328125 0.43799999999999983 1.36201611328125 0.46724999999999983 Q 1.32751611328125 0.49649999999999983 1.31701611328125 0.5534999999999999 L 1.57651611328125 0.5534999999999999 M 1.992807861328125 0.4079999999999999 Q 2.040057861328125 0.3104999999999999 2.121807861328125 0.2579999999999999 Q 2.203557861328125 0.2054999999999999 2.304057861328125 0.2054999999999999 Q 2.391057861328125 0.2054999999999999 2.454057861328125 0.23999999999999988 Q 2.517057861328125 0.27449999999999986 2.551557861328125 0.33299999999999985 L 2.551557861328125 0.21599999999999986 L 2.845557861328125 0.21599999999999986 L 2.845557861328125 1.0574999999999999 L 2.551557861328125 1.0574999999999999 L 2.551557861328125 0.9404999999999999 Q 2.517057861328125 0.9989999999999999 2.453307861328125 1.0334999999999999 Q 2.389557861328125 1.0679999999999998 2.304057861328125 1.0679999999999998 Q 2.203557861328125 1.0679999999999998 2.121807861328125 1.0154999999999998 Q 2.040057861328125 0.9629999999999999 1.992807861328125 0.8647499999999999 Q 1.945557861328125 0.7665 1.945557861328125 0.6359999999999999 Q 1.945557861328125 0.5054999999999998 1.992807861328125 0.4079999999999999 M 2.507307861328125 0.5084999999999998 Q 2.463057861328125 0.46199999999999986 2.398557861328125 0.46199999999999986 Q 2.332557861328125 0.46199999999999986 2.289057861328125 0.5077499999999999 Q 2.245557861328125 0.5534999999999999 2.245557861328125 0.6359999999999999 Q 2.245557861328125 0.7169999999999999 2.289057861328125 0.7642499999999999 Q 2.332557861328125 0.8114999999999999 2.398557861328125 0.8114999999999999 Q 2.463057861328125 0.8114999999999999 2.507307861328125 0.7649999999999999 Q 2.551557861328125 0.7184999999999999 2.551557861328125 0.6359999999999999 Q 2.551557861328125 0.5549999999999998 2.507307861328125 0.5084999999999998 M 3.0165468749999995 0.4079999999999999 Q 3.070546875 0.3104999999999999 3.1672968749999995 0.2579999999999999 Q 3.2640468749999996 0.2054999999999999 3.388546875 0.2054999999999999 Q 3.5490468749999997 0.2054999999999999 3.658546875 0.2932499999999999 Q 3.7680468749999996 0.3809999999999999 3.799546875 0.5384999999999999 L 3.4875468749999996 0.5384999999999999 Q 3.4605468749999995 0.45599999999999985 3.3825468749999996 0.45599999999999985 Q 3.3270468749999997 0.45599999999999985 3.294796875 0.5017499999999999 Q 3.2625468749999995 0.5474999999999999 3.2625468749999995 0.6359999999999999 Q 3.2625468749999995 0.7244999999999999 3.294796875 0.7709999999999999 Q 3.3270468749999997 0.8174999999999999 3.3825468749999996 0.8174999999999999 Q 3.4620468749999995 0.8174999999999999 3.4875468749999996 0.7349999999999999 L 3.799546875 0.7349999999999999 Q 3.7680468749999996 0.8909999999999999 3.658546875 0.9794999999999999 Q 3.5490468749999997 1.0679999999999998 3.388546875 1.0679999999999998 Q 3.2640468749999996 1.0679999999999998 3.1672968749999995 1.0154999999999998 Q 3.070546875 0.9629999999999999 3.0165468749999995 0.8654999999999999 Q 2.9625468749999997 0.7679999999999999 2.9625468749999997 0.6359999999999999 Q 2.9625468749999997 0.5054999999999998 3.0165468749999995 0.4079999999999999 M 4.414538818359374 0.8069999999999999 L 4.414538818359374 1.0574999999999999 L 4.287038818359375 1.0574999999999999 Q 3.9645388183593746 1.0574999999999999 3.9645388183593746 0.7379999999999999 L 3.9645388183593746 0.4604999999999999 L 3.8610388183593747 0.4604999999999999 L 3.8610388183593747 0.21599999999999986 L 3.9645388183593746 0.21599999999999986 L 3.9645388183593746 0.011999999999999789 L 4.260038818359375 0.011999999999999789 L 4.260038818359375 0.21599999999999986 L 4.413038818359374 0.21599999999999986 L 4.413038818359374 0.4604999999999999 L 4.260038818359375 0.4604999999999999 L 4.260038818359375 0.7424999999999999 Q 4.260038818359375 0.7769999999999999 4.275788818359374 0.7919999999999998 Q 4.291538818359374 0.8069999999999999 4.329038818359375 0.8069999999999999 L 4.414538818359374 0.8069999999999999 M 5.082069580078125 1.0574999999999999 L 4.872069580078125 0.6674999999999999 L 4.8405695800781245 0.6674999999999999 L 4.8405695800781245 1.0574999999999999 L 4.546569580078124 1.0574999999999999 L 4.546569580078124 -2.220446049250313e-16 L 5.010069580078125 -2.220446049250313e-16 Q 5.137569580078124 -2.220446049250313e-16 5.226069580078125 0.0442499999999999 Q 5.314569580078125 0.08849999999999991 5.359569580078125 0.16574999999999984 Q 5.404569580078125 0.24299999999999988 5.404569580078125 0.33899999999999986 Q 5.404569580078125 0.44699999999999984 5.345319580078124 0.5287499999999998 Q 5.2860695800781246 0.6104999999999998 5.172069580078125 0.6449999999999998 L 5.410569580078125 1.0574999999999999 L 5.082069580078125 1.0574999999999999 M 4.8405695800781245 0.4664999999999999 L 4.986069580078125 0.4664999999999999 Q 5.046069580078124 0.4664999999999999 5.076069580078125 0.43799999999999983 Q 5.106069580078124 0.40949999999999986 5.106069580078124 0.3554999999999998 Q 5.106069580078124 0.3044999999999999 5.075319580078125 0.2752499999999999 Q 5.044569580078124 0.24599999999999989 4.986069580078125 0.24599999999999989 L 4.8405695800781245 0.24599999999999989 L 4.8405695800781245 0.4664999999999999 M 5.534335693359374 0.4079999999999999 Q 5.581585693359374 0.3104999999999999 5.663335693359374 0.2579999999999999 Q 5.745085693359374 0.2054999999999999 5.845585693359374 0.2054999999999999 Q 5.932585693359374 0.2054999999999999 5.9955856933593745 0.23999999999999988 Q 6.058585693359374 0.27449999999999986 6.093085693359375 0.33299999999999985 L 6.093085693359375 0.21599999999999986 L 6.387085693359374 0.21599999999999986 L 6.387085693359374 1.0574999999999999 L 6.093085693359375 1.0574999999999999 L 6.093085693359375 0.9404999999999999 Q 6.058585693359374 0.9989999999999999 5.9948356933593745 1.0334999999999999 Q 5.931085693359375 1.0679999999999998 5.845585693359374 1.0679999999999998 Q 5.745085693359374 1.0679999999999998 5.663335693359374 1.0154999999999998 Q 5.581585693359374 0.9629999999999999 5.534335693359374 0.8647499999999999 Q 5.487085693359374 0.7665 5.487085693359374 0.6359999999999999 Q 5.487085693359374 0.5054999999999998 5.534335693359374 0.4079999999999999 M 6.048835693359374 0.5084999999999998 Q 6.004585693359374 0.46199999999999986 5.940085693359374 0.46199999999999986 Q 5.874085693359374 0.46199999999999986 5.8305856933593745 0.5077499999999999 Q 5.787085693359375 0.5534999999999999 5.787085693359375 0.6359999999999999 Q 5.787085693359375 0.7169999999999999 5.8305856933593745 0.7642499999999999 Q 5.874085693359374 0.8114999999999999 5.940085693359374 0.8114999999999999 Q 6.004585693359374 0.8114999999999999 6.048835693359374 0.7649999999999999 Q 6.093085693359375 0.7184999999999999 6.093085693359375 0.6359999999999999 Q 6.093085693359375 0.5549999999999998 6.048835693359374 0.5084999999999998 M 7.333574707031249 0.3052499999999999 Q 7.41907470703125 0.4019999999999999 7.41907470703125 0.567 L 7.41907470703125 1.0574999999999999 L 7.125074707031249 1.0574999999999999 L 7.125074707031249 0.6059999999999999 Q 7.125074707031249 0.5339999999999999 7.08757470703125 0.4927499999999999 Q 7.050074707031249 0.4514999999999999 6.987074707031249 0.4514999999999999 Q 6.9210747070312495 0.4514999999999999 6.883574707031249 0.4927499999999999 Q 6.846074707031249 0.5339999999999999 6.846074707031249 0.6059999999999999 L 6.846074707031249 1.0574999999999999 L 6.552074707031249 1.0574999999999999 L 6.552074707031249 0.21599999999999986 L 6.846074707031249 0.21599999999999986 L 6.846074707031249 0.33599999999999985 Q 6.885074707031249 0.2789999999999999 6.951074707031249 0.2437499999999999 Q 7.01707470703125 0.2084999999999999 7.102574707031249 0.2084999999999999 Q 7.2480747070312495 0.2084999999999999 7.333574707031249 0.3052499999999999 M 8.037785888671873 0.23999999999999988 Q 8.101535888671874 0.27449999999999986 8.136035888671874 0.33299999999999985 L 8.136035888671874 0.21599999999999986 L 8.430035888671874 0.21599999999999986 L 8.430035888671874 1.0485 Q 8.430035888671874 1.1669999999999998 8.385035888671874 1.2622499999999999 Q 8.340035888671874 1.3575 8.244785888671874 1.4144999999999999 Q 8.149535888671874 1.4714999999999998 8.004035888671874 1.4714999999999998 Q 7.8090358886718745 1.4714999999999998 7.6920358886718745 1.38 Q 7.5750358886718745 1.2885 7.558535888671874 1.1309999999999998 L 7.848035888671874 1.1309999999999998 Q 7.857035888671874 1.1715 7.893035888671874 1.194 Q 7.929035888671874 1.2165 7.986035888671874 1.2165 Q 8.136035888671874 1.2165 8.136035888671874 1.0485 L 8.136035888671874 0.9404999999999999 Q 8.101535888671874 0.9989999999999999 8.037785888671873 1.0334999999999999 Q 7.9740358886718745 1.0679999999999998 7.888535888671874 1.0679999999999998 Q 7.788035888671874 1.0679999999999998 7.706285888671874 1.0154999999999998 Q 7.624535888671874 0.9629999999999999 7.577285888671874 0.8647499999999999 Q 7.530035888671874 0.7665 7.530035888671874 0.6359999999999999 Q 7.530035888671874 0.5054999999999998 7.577285888671874 0.4079999999999999 Q 7.624535888671874 0.3104999999999999 7.706285888671874 0.2579999999999999 Q 7.788035888671874 0.2054999999999999 7.888535888671874 0.2054999999999999 Q 7.9740358886718745 0.2054999999999999 8.037785888671873 0.23999999999999988 M 8.091785888671874 0.5084999999999998 Q 8.047535888671874 0.46199999999999986 7.983035888671874 0.46199999999999986 Q 7.917035888671874 0.46199999999999986 7.873535888671874 0.5077499999999999 Q 7.830035888671874 0.5534999999999999 7.830035888671874 0.6359999999999999 Q 7.830035888671874 0.7169999999999999 7.873535888671874 0.7642499999999999 Q 7.917035888671874 0.8114999999999999 7.983035888671874 0.8114999999999999 Q 8.047535888671874 0.8114999999999999 8.091785888671874 0.7649999999999999 Q 8.136035888671874 0.7184999999999999 8.136035888671874 0.6359999999999999 Q 8.136035888671874 0.5549999999999998 8.091785888671874 0.5084999999999998 M 9.394524902343749 0.696 L 8.838024902343749 0.696 Q 8.842524902343749 0.7649999999999999 8.876274902343749 0.7987499999999998 Q 8.91002490234375 0.8324999999999999 8.962524902343748 0.8324999999999999 Q 9.03602490234375 0.8324999999999999 9.067524902343749 0.7665 L 9.381024902343748 0.7665 Q 9.36152490234375 0.8534999999999999 9.305274902343749 0.9217499999999998 Q 9.249024902343749 0.9899999999999999 9.163524902343749 1.029 Q 9.07802490234375 1.0679999999999998 8.974524902343749 1.0679999999999998 Q 8.85002490234375 1.0679999999999998 8.75327490234375 1.0154999999999998 Q 8.65652490234375 0.9629999999999999 8.601774902343749 0.8654999999999999 Q 8.547024902343749 0.7679999999999999 8.547024902343749 0.6359999999999999 Q 8.547024902343749 0.5039999999999999 8.601024902343749 0.4072499999999999 Q 8.655024902343749 0.3104999999999999 8.75177490234375 0.2579999999999999 Q 8.84852490234375 0.2054999999999999 8.974524902343749 0.2054999999999999 Q 9.099024902343748 0.2054999999999999 9.195024902343748 0.25649999999999984 Q 9.291024902343748 0.3074999999999999 9.345024902343749 0.40274999999999983 Q 9.399024902343749 0.4979999999999999 9.399024902343749 0.6269999999999999 Q 9.399024902343749 0.6614999999999999 9.394524902343749 0.696 M 9.099024902343748 0.5534999999999999 Q 9.099024902343748 0.49949999999999983 9.063024902343749 0.4687499999999999 Q 9.027024902343749 0.43799999999999983 8.973024902343749 0.43799999999999983 Q 8.919024902343748 0.43799999999999983 8.884524902343749 0.46724999999999983 Q 8.85002490234375 0.49649999999999983 8.839524902343749 0.5534999999999999 L 9.099024902343748 0.5534999999999999 M 9.930066650390623 0.25049999999999983 Q 10.000566650390624 0.2084999999999999 10.081566650390624 0.2084999999999999 L 10.081566650390624 0.5219999999999999 L 9.999066650390624 0.5219999999999999 Q 9.903066650390624 0.5219999999999999 9.856566650390624 0.5594999999999999 Q 9.810066650390624 0.5969999999999999 9.810066650390624 0.69 L 9.810066650390624 1.0574999999999999 L 9.516066650390623 1.0574999999999999 L 9.516066650390623 0.21599999999999986 L 9.810066650390624 0.21599999999999986 L 9.810066650390624 0.3644999999999998 Q 9.859566650390624 0.29249999999999987 9.930066650390623 0.25049999999999983" fill="#343432" fill-rule="nonzero"></path></g><g></g><g clip-path="url(#SvgjsClipPath1002)"><g clip-path="url(#aeee67998-f4bd-45cb-9670-66103930a7d39901e18c-d0a8-4212-b833-d61a00356764)"><path d=" M 5.051299438476564 -0.3742786471097599 C 7.398654443963563 -0.3742786471097599 9.301567751304598 -2.277191954450794 9.301567751304598 -4.624546959937795 C 9.301567751304598 -6.971915317234755 7.398654443963563 -8.87482862457579 5.051299438476564 -8.87482862457579 C 2.7039444329895646 -8.87482862457579 0.8010311256485296 -6.971915317234755 0.8010311256485296 -4.624546959937795 C 0.8010311256485296 -2.277191954450794 2.7039444329895646 -0.3742786471097599 5.051299438476564 -0.3742786471097599" fill="#aac527" transform="matrix(1,0,0,1,0,0)" fill-rule="nonzero"></path></g><g clip-path="url(#aeee67998-f4bd-45cb-9670-66103930a7d39901e18c-d0a8-4212-b833-d61a00356764)"><path d=" M 5.051299438476564 -0.3742786471097599 C 7.398654443963563 -0.3742786471097599 9.301567751304598 -2.277191954450794 9.301567751304598 -4.624546959937795 C 9.301567751304598 -6.971915317234755 7.398654443963563 -8.87482862457579 5.051299438476564 -8.87482862457579 C 2.7039444329895646 -8.87482862457579 0.8010311256485296 -6.971915317234755 0.8010311256485296 -4.624546959937795 C 0.8010311256485296 -2.277191954450794 2.7039444329895646 -0.3742786471097599 5.051299438476564 -0.3742786471097599 Z" fill="none" transform="matrix(1,0,0,1,0,0)" fill-rule="nonzero" stroke-dasharray="none" stroke-miterlimit="4" stroke-linejoin="miter" stroke-linecap="butt" stroke-width="0.2485572942195235" stroke="#343432"></path></g><g clip-path="url(#aeee67998-f4bd-45cb-9670-66103930a7d39901e18c-d0a8-4212-b833-d61a00356764)"><path d=" M 7.790449955436366 -6.6736358827233575 L 7.752998128497938 -6.711047654231905 C 7.249528078517825 -6.214173398372141 6.534645469627531 -5.5420699885944025 6.534645469627531 -5.5420699885944025 L 6.49580505445324 -5.580910403768694 C 6.49580505445324 -5.580910403768694 7.125970429145915 -6.34247094027993 7.613578528893283 -6.85050730926644 L 7.558034999458752 -6.906037486891011 C 7.050185555811686 -6.413475865648399 6.307117276095359 -5.769584830316614 6.307117276095359 -5.769584830316614 L 6.268290212731029 -5.808385190061024 C 6.268290212731029 -5.808385190061024 6.926547795580015 -6.541773407556189 7.418548640804297 -7.045510493735507 L 7.363178684899249 -7.100880449640554 C 6.852992674509143 -6.61412686573064 6.0796024343731485 -5.997072968418904 6.0796024343731485 -5.997072968418904 L 6.040735315578937 -6.0359667908330366 C 6.040735315578937 -6.0359667908330366 6.733240290975897 -6.74723105922411 7.22358551176511 -7.240527030014533 L 7.186387369215927 -7.277671765323875 C 7.186387369215927 -7.277671765323875 5.880486892436333 -6.319439068098545 5.703335077884085 -5.985977614341959 C 5.526250022381639 -5.6525428642052935 5.878871323431146 -5.49412363902724 5.637483951160263 -5.252736266756356 C 5.396083227079419 -5.011335542675513 5.035490895483659 -4.609058860383935 4.008643246872738 -3.685113611136458 C 3.131362573436244 -2.8958747725776774 2.19504019635564 -2.4355978278188877 2.5731100471893322 -2.0575146251752345 C 2.9513401197425475 -1.6792177935722181 3.4086129072602875 -2.6185710315137927 4.19790515305891 -3.4958383531403276 C 5.1218637541163465 -4.522726057181129 5.52693096468961 -4.886082213438655 5.765567864108688 -5.124719112857732 C 6.004164708097885 -5.363315956846929 6.165321054317784 -5.013511887699029 6.49874245264449 -5.190596943201475 C 6.832243961830955 -5.367695350513882 7.790449955436366 -6.6736358827233575 7.790449955436366 -6.6736358827233575" fill="#343432" transform="matrix(1,0,0,1,0,0)" fill-rule="nonzero"></path></g><g clip-path="url(#aeee67998-f4bd-45cb-9670-66103930a7d39901e18c-d0a8-4212-b833-d61a00356764)"><path d=" M 2.3737408208632735 -7.138358980198902 C 1.9695281261274626 -6.680311787703469 3.673953426599813 -4.672827104753963 4.034051741227044 -4.5023912506117085 C 4.324840810350755 -4.364880959831365 4.456422897508759 -4.563489132989692 4.6375535514291535 -4.520336083198249 C 4.680733304840517 -4.510015134098995 5.150343164761503 -4.235341699597274 5.917070851727346 -3.4838617796060065 C 6.810146716346785 -2.608423655944023 7.374701296894922 -1.66561229922275 7.728484205410968 -2.0664736896585456 C 8.082440687456497 -2.4675487090537027 6.834433658664432 -3.142856553221895 6.149512511324879 -3.7473063419311803 C 5.464564660365406 -4.351729427020545 3.816350479825598 -5.865237196871656 3.624498322507144 -6.034578202597173 L 2.3737408208632735 -7.138358980198902" fill="#343432" transform="matrix(1,0,0,1,0,0)" fill-rule="nonzero"></path></g></g></g><defs><clipPath id="SvgjsClipPath1002"><path d=" M 0.6767524785387682 -8.999107271685551 h 8.749093919875591 v 8.749107271685551 h -8.749093919875591 Z"></path></clipPath><clipPath id="aeee67998-f4bd-45cb-9670-66103930a7d39901e18c-d0a8-4212-b833-d61a00356764"><path d=" M 0.6767524785387681 -0.24999999999999822 L 9.42584639841436 -0.24999999999999822 L 9.42584639841436 -8.99909391987559 L 0.6767524785387681 -8.99909391987559 Z"></path></clipPath></defs></svg>